Coordinates
version=1
nRows=12
nColumns=34
inDegrees=yes

Units are S.I. units (second, meters, Newtons, ...)
If the header above contains a line with 'inDegrees', this indicates whether rotational values are in degrees (yes) or radians (no).

endheader
time	pelvis_tilt	pelvis_list	pelvis_rotation	pelvis_tx	pelvis_ty	pelvis_tz	hip_flexion_r	hip_adduction_r	hip_rotation_r	knee_angle_r	ankle_angle_r	subtalar_angle_r	mtp_angle_r	hip_flexion_l	hip_adduction_l	hip_rotation_l	knee_angle_l	ankle_angle_l	subtalar_angle_l	mtp_angle_l	lumbar_extension	lumbar_bending	lumbar_rotation	arm_flex_r	arm_add_r	arm_rot_r	elbow_flex_r	pro_sup_r	arm_flex_l	arm_add_l	arm_rot_l	elbow_flex_l	pro_sup_l
      1.36666670	      5.42398054	      0.54829271	    -20.78722127	      0.25196898	      0.99997525	      0.12768444	     -4.26786072	     -5.42680591	    -14.87494329	      0.59008501	     11.61499707	     -0.13321303	      0.00000000	      2.98511989	     -6.43911186	    -15.23956134	      5.81693900	     13.15518222	      2.76364676	      0.00000000	    -10.88126773	     -1.66337151	      1.90890070	     15.92985030	    -13.38223323	     33.91237272	     18.63291512	    114.25593066	     15.05714931	    -15.14471628	     33.23569715	     18.27628215	    112.92420461
      1.38333330	      5.42595378	      0.53434612	    -20.78598260	      0.25312712	      1.00018366	      0.12855220	     -4.36320946	     -5.37889624	    -14.89747838	      0.61005397	     11.58858546	     -0.13852930	      0.00000000	      2.86090429	     -6.48251660	    -15.24052327	      5.78549408	     13.09320478	      2.81215388	      0.00000000	    -10.78615160	     -1.68625144	      1.89407077	     15.34511331	    -13.68377222	     33.85793945	     18.36847254	    114.29231400	     14.37715948	    -15.46788250	     33.17312042	     17.90685124	    112.94445272
      1.40000000	      5.39682597	      0.55796039	    -20.76902869	      0.25275200	      1.00010721	      0.12899880	     -4.32647303	     -5.34759247	    -14.90062168	      0.56484917	     11.58206889	     -0.13558211	      0.00000000	      2.89519251	     -6.49070936	    -15.24207960	      5.71844900	     13.07479931	      2.83100073	      0.00000000	    -10.93733571	     -1.72267679	      1.88925099	     15.10585673	    -14.13220974	     33.79857003	     18.16245004	    114.29686346	     14.07436486	    -15.85437058	     33.11922088	     17.67889157	    112.94391163
      1.41666670	      5.38602385	      0.56944345	    -20.73045557	      0.25362905	      1.00022100	      0.12952850	     -4.40591760	     -5.33093303	    -14.92363205	      0.53426120	     11.55921250	     -0.14705411	      0.00000000	      2.80873177	     -6.48714984	    -15.25221177	      5.63519653	     13.00507503	      2.88131681	      0.00000000	    -10.84796234	     -1.71348196	      1.85209525	     14.66350545	    -14.50070573	     33.68869420	     17.93581534	    114.32119154	     13.51211648	    -16.06328301	     33.01562545	     17.39627661	    112.94980447
      1.43333330	      5.36112322	      0.59079218	    -20.71190241	      0.25330519	      1.00021466	      0.12983606	     -4.37277857	     -5.30752212	    -14.92803808	      0.50732108	     11.54810872	     -0.14620645	      0.00000000	      2.84163667	     -6.49636482	    -15.25208030	      5.58793883	     12.98802963	      2.89787817	      0.00000000	    -10.95666363	     -1.74637995	      1.84595886	     14.52354425	    -14.96796311	     33.61265719	     17.75928986	    114.31694748	     13.29552427	    -16.40478612	     32.95455580	     17.22543688	    112.94286061
      1.45000000	      5.18221126	      0.62102525	    -20.64272996	      0.25442412	      1.00006857	      0.13019539	     -4.36673921	     -5.23237967	    -15.05982352	      0.30672180	     11.42542559	     -0.16584897	      0.00000000	      2.76159826	     -6.47338154	    -15.31833846	      5.15443353	     12.95304363	      3.06888177	      0.00000000	    -10.58700440	     -1.68441482	      1.74645135	     14.07080639	    -15.41003210	     32.97348655	     17.64947240	    114.34186436	     12.70575813	    -16.47320463	     32.26848346	     17.01335447	    112.87307191
      1.46666670	      5.19414856	      0.62498829	    -20.65315922	      0.25423587	      1.00013054	      0.13017815	     -4.34144531	     -5.24396428	    -15.04373282	      0.33399827	     11.40713117	     -0.15466629	      0.00000000	      2.79020490	     -6.48930847	    -15.29466458	      5.20979475	     12.91443666	      3.09677851	      0.00000000	    -10.69261475	     -1.69221768	      1.73709299	     13.97378643	    -15.84011415	     32.88478269	     17.49361837	    114.33340576	     12.57088987	    -16.74544822	     32.19404650	     16.90280035	    112.86165160
      1.48333330	      5.20287078	      0.62173794	    -20.65420953	      0.25399481	      1.00017602	      0.12996867	     -4.31979411	     -5.26498533	    -15.03724476	      0.37349832	     11.38814052	     -0.14953108	      0.00000000	      2.81892802	     -6.49267097	    -15.28004239	      5.27113207	     12.87784453	      3.12422552	      0.00000000	    -10.78013085	     -1.66410706	      1.73776174	     13.87113827	    -16.24621741	     32.78821810	     17.34171103	    114.32299219	     12.42545820	    -16.93007976	     32.11531601	     16.81673397	    112.84851724
      1.50000000	      4.96181763	      0.61256086	    -20.64285088	      0.25385243	      0.99982412	      0.12919823	     -3.82119111	     -5.27017924	    -15.50053178	      0.82694885	     11.56761244	      0.16322244	      0.00000000	      3.35904752	     -6.69850517	    -16.05936064	      5.84160141	     13.37589153	      4.12904679	      0.00000000	    -10.66971474	     -1.43953120	      1.74450137	     13.15507071	    -16.27628312	     27.22143399	     18.02777669	    114.65684198	     11.56321981	    -16.44930269	     25.71495058	     17.80802316	    112.29829597
      1.51666670	      4.96957772	      0.62069395	    -20.63727680	      0.25355202	      0.99986961	      0.12880480	     -3.80182034	     -5.30677628	    -15.47094356	      0.81500881	     11.55914899	      0.18852851	      0.00000000	      3.39279524	     -6.66339206	    -16.04641454	      5.84997564	     13.37297780	      4.13950960	      0.00000000	    -10.74140943	     -1.35804759	      1.75955807	     13.12086772	    -16.53465805	     27.18511843	     17.93164339	    114.66595272	     11.53289633	    -16.60178555	     25.69055316	     17.75725045	    112.30646255
      1.53333330	      4.97118842	      0.64542206	    -20.64908895	      0.25327134	      0.99989358	      0.12835115	     -3.77362923	     -5.34538569	    -15.46217152	      0.78852408	     11.55687272	      0.19735364	      0.00000000	      3.42521790	     -6.61514685	    -16.04023554	      5.84941521	     13.37568806	      4.14410575	      0.00000000	    -10.82174401	     -1.26285986	      1.76880782	     13.08423174	    -16.68357871	     27.16345835	     17.86911597	    114.66815864	     11.50350506	    -16.69355738	     25.67853271	     17.72683567	    112.30944278
      1.55000000	      5.00263963	      0.71762838	    -20.65958607	      0.25323232	      0.99994936	      0.12705729	     -3.77439942	     -5.51625755	    -15.41405061	      0.72082631	     11.50466089	      0.26017689	      0.00000000	      3.46153024	     -6.43456062	    -16.00569897	      5.86782316	     13.43693667	      4.13097828	      0.00000000	    -10.88084870	     -1.08574628	      1.80217819	     13.23419570	    -17.10622086	     27.05326627	     17.73358870	    114.68702363	     11.54009556	    -16.50069721	     25.70047983	     17.82126615	    112.34934563
